<?xml version="1.0" encoding="UTF-8" standalone="no"?>
<!DOCTYPE svg PUBLIC "-//W3C//DTD SVG 1.1//EN"
 "http://www.w3.org/Graphics/SVG/1.1/DTD/svg11.dtd">
<!-- Generated by graphviz version 9.0.0 (20230911.1827)
 -->
<!-- Title: classes_RoadRushGame Pages: 1 -->
<svg width="418pt" height="160pt"
 viewBox="0.00 0.00 418.00 159.50" xmlns="http://www.w3.org/2000/svg" xmlns:xlink="http://www.w3.org/1999/xlink">
<g id="graph0" class="graph" transform="scale(1 1) rotate(0) translate(4 155.5)">
<title>classes_RoadRushGame</title>
<polygon fill="white" stroke="none" points="-4,4 -4,-155.5 414,-155.5 414,4 -4,4"/>
<!-- Player -->
<g id="node1" class="node">
<title>Player</title>
<polygon fill="lightblue" stroke="black" points="162.25,-150 0,-150 0,0 162.25,0 162.25,-150"/>
<text text-anchor="middle" x="81.12" y="-132.7" font-family="Arial" font-size="14.00">{Player|+image: Surface</text>
<text text-anchor="middle" x="81.12" y="-116.95" font-family="Arial" font-size="14.00">+rect: Rect</text>
<text text-anchor="middle" x="81.12" y="-101.2" font-family="Arial" font-size="14.00">+speed: int</text>
<text text-anchor="middle" x="81.12" y="-69.45" font-family="Arial" font-size="14.00">+move_up()</text>
<text text-anchor="middle" x="81.12" y="-53.7" font-family="Arial" font-size="14.00">+move_down()</text>
<text text-anchor="middle" x="81.12" y="-37.95" font-family="Arial" font-size="14.00">+move_left()</text>
<text text-anchor="middle" x="81.12" y="-22.2" font-family="Arial" font-size="14.00">+move_right()</text>
<text text-anchor="middle" x="81.12" y="-6.45" font-family="Arial" font-size="14.00">}</text>
</g>
<!-- Baddie -->
<g id="node2" class="node">
<title>Baddie</title>
<polygon fill="lightblue" stroke="black" points="410,-151.5 244,-151.5 244,-80.5 410,-80.5 410,-151.5"/>
<text text-anchor="middle" x="327" y="-134.2" font-family="Arial" font-size="14.00">{Baddie|+image: Surface</text>
<text text-anchor="middle" x="327" y="-118.45" font-family="Arial" font-size="14.00">+rect: Rect</text>
<text text-anchor="middle" x="327" y="-102.7" font-family="Arial" font-size="14.00">+speed: int</text>
<text text-anchor="middle" x="327" y="-86.95" font-family="Arial" font-size="14.00">}</text>
</g>
<!-- Player&#45;&gt;Baddie -->
<g id="edge1" class="edge">
<title>Player&#45;&gt;Baddie</title>
<path fill="none" stroke="black" d="M162.65,-88.54C185.07,-92.31 209.6,-96.43 232.69,-100.31"/>
<polygon fill="black" stroke="black" points="231.95,-103.74 242.39,-101.94 233.11,-96.83 231.95,-103.74"/>
<text text-anchor="middle" x="203.12" y="-102.2" font-family="Times,serif" font-size="14.00">collide()</text>
</g>
<!-- Wall -->
<g id="node3" class="node">
<title>Wall</title>
<polygon fill="lightblue" stroke="black" points="402.12,-62.62 251.88,-62.62 251.88,-7.38 402.12,-7.38 402.12,-62.62"/>
<text text-anchor="middle" x="327" y="-45.33" font-family="Arial" font-size="14.00">{Wall|+image: Surface</text>
<text text-anchor="middle" x="327" y="-29.57" font-family="Arial" font-size="14.00">+rect: Rect</text>
<text text-anchor="middle" x="327" y="-13.82" font-family="Arial" font-size="14.00">}</text>
</g>
<!-- Player&#45;&gt;Wall -->
<g id="edge2" class="edge">
<title>Player&#45;&gt;Wall</title>
<path fill="none" stroke="black" d="M162.65,-61.79C187.67,-57.69 215.33,-53.15 240.66,-49"/>
<polygon fill="black" stroke="black" points="240.94,-52.5 250.25,-47.43 239.81,-45.59 240.94,-52.5"/>
<text text-anchor="middle" x="203.12" y="-62.2" font-family="Times,serif" font-size="14.00">collide()</text>
</g>
</g>
</svg>
